<svg xmlns="http://www.w3.org/2000/svg" xmlns:xlink="http://www.w3.org/1999/xlink" version="1.1" x="0px" y="0px" viewBox="0 0 100 100" enable-background="new 0 0 100 100" xml:space="preserve"><g><path d="M49.928,2.678L9,26.307l0.036,47.322L50,97.321L90.928,73.69l-0.035-47.321L49.928,2.678z M85.131,70.108L49.796,90.511   L14.379,69.967l-0.083-40.944L49.632,8.622l35.418,20.542L85.131,70.108z"/><polygon points="49.594,82.544 49.601,87.159 82.305,68.278 78.318,65.962  "/><polygon points="49.705,12.734 49.699,17.35 77.107,33.173 81.107,30.864  "/><polygon points="17.763,31.195 17.763,67.371 21.763,65.062 21.763,33.49  "/></g><g><polygon points="43.296,53.603 51.316,53.757 46.227,77.354 59.953,44.348 52.704,44.503 57.794,29.079 45.918,28.771  "/></g></svg><svg xmlns="http://www.w3.org/2000/svg" xmlns:xlink="http://www.w3.org/1999/xlink" version="1.1" x="0px" y="0px" viewBox="0 0 100 100" enable-background="new 0 0 100 100" xml:space="preserve"><g><path d="M49.928,2.678L9,26.307l0.036,47.322L50,97.321L90.928,73.69l-0.035-47.321L49.928,2.678z M85.131,70.108L49.796,90.511   L14.379,69.967l-0.083-40.944L49.632,8.622l35.418,20.542L85.131,70.108z"/><polygon points="49.594,82.544 49.601,87.159 82.305,68.278 78.318,65.962  "/><polygon points="49.705,12.734 49.699,17.35 77.107,33.173 81.107,30.864  "/><polygon points="17.763,31.195 17.763,67.371 21.763,65.062 21.763,33.49  "/></g><g><polygon points="43.296,53.603 51.316,53.757 46.227,77.354 59.953,44.348 52.704,44.503 57.794,29.079 45.918,28.771  "/></g></svg>