<?xml version="1.0" encoding="UTF-8"?>
<svg width="700pt" height="600pt" version="1.1" viewBox="0 -25 700 600" xmlns="http://www.w3.org/2000/svg" xmlns:xlink="http://www.w3.org/1999/xlink">
 <defs>
  <symbol id="o" overflow="visible">
   <path d="m29.312-1.75c-1.5117 0.78125-3.0898 1.3711-4.7344 1.7656-1.6367 0.40625-3.3398 0.60938-5.1094 0.60938-5.3125 0-9.5273-1.4844-12.641-4.4531-3.1055-2.9688-4.6562-7-4.6562-12.094s1.5508-9.125 4.6562-12.094c3.1133-2.9688 7.3281-4.4531 12.641-4.4531 1.7695 0 3.4727 0.19922 5.1094 0.59375 1.6445 0.39844 3.2227 0.99219 4.7344 1.7812v6.5938c-1.5312-1.0391-3.0391-1.8008-4.5156-2.2812-1.4805-0.48828-3.0391-0.73438-4.6719-0.73438-2.9375 0-5.2461 0.94531-6.9219 2.8281-1.6797 1.875-2.5156 4.4648-2.5156 7.7656 0 3.293 0.83594 5.8828 2.5156 7.7656 1.6758 1.875 3.9844 2.8125 6.9219 2.8125 1.6328 0 3.1914-0.23828 4.6719-0.71875 1.4766-0.48828 2.9844-1.2539 4.5156-2.2969z"/>
  </symbol>
  <symbol id="j" overflow="visible">
   <path d="m21.453-17.406c-0.67969-0.3125-1.3516-0.53906-2.0156-0.6875-0.65625-0.15625-1.3203-0.23438-1.9844-0.23438-1.9688 0-3.4844 0.63281-4.5469 1.8906-1.0547 1.2617-1.5781 3.0703-1.5781 5.4219v11.016h-7.6562v-23.922h7.6562v3.9219c0.97656-1.5625 2.1016-2.7031 3.375-3.4219 1.2812-0.71875 2.8125-1.0781 4.5938-1.0781 0.25 0 0.52344 0.011719 0.82812 0.03125 0.30078 0.023438 0.73438 0.070312 1.2969 0.14062z"/>
  </symbol>
  <symbol id="b" overflow="visible">
   <path d="m27.562-12.031v2.1875h-17.891c0.1875 1.793 0.83203 3.1367 1.9375 4.0312 1.1133 0.89844 2.6719 1.3438 4.6719 1.3438 1.6016 0 3.25-0.23438 4.9375-0.70312 1.6875-0.47656 3.4219-1.2031 5.2031-2.1719v5.8906c-1.8047 0.6875-3.6094 1.2031-5.4219 1.5469-1.8125 0.35156-3.6211 0.53125-5.4219 0.53125-4.3359 0-7.7031-1.0977-10.109-3.2969-2.3984-2.207-3.5938-5.2969-3.5938-9.2656 0-3.9062 1.1758-6.9727 3.5312-9.2031 2.3633-2.2383 5.6094-3.3594 9.7344-3.3594 3.7578 0 6.7695 1.1367 9.0312 3.4062 2.2578 2.2617 3.3906 5.2812 3.3906 9.0625zm-7.8594-2.5312c0-1.457-0.42969-2.6289-1.2812-3.5156-0.84375-0.89453-1.9492-1.3438-3.3125-1.3438-1.4922 0-2.6992 0.41797-3.625 1.25-0.91797 0.83594-1.4922 2.0391-1.7188 3.6094z"/>
  </symbol>
  <symbol id="a" overflow="visible">
   <path d="m14.391-10.766c-1.5938 0-2.793 0.27344-3.5938 0.8125-0.80469 0.54297-1.2031 1.3398-1.2031 2.3906 0 0.96875 0.32031 1.7305 0.96875 2.2812 0.64453 0.54297 1.5469 0.8125 2.7031 0.8125 1.4375 0 2.6445-0.51562 3.625-1.5469 0.98828-1.0312 1.4844-2.3203 1.4844-3.875v-0.875zm11.688-2.8906v13.656h-7.7031v-3.5469c-1.0312 1.4492-2.1875 2.5078-3.4688 3.1719s-2.8398 1-4.6719 1c-2.4805 0-4.4961-0.72266-6.0469-2.1719-1.543-1.4453-2.3125-3.3203-2.3125-5.625 0-2.8125 0.96094-4.8672 2.8906-6.1719 1.9375-1.3125 4.9688-1.9688 9.0938-1.9688h4.5156v-0.60938c0-1.207-0.48047-2.0938-1.4375-2.6562-0.94922-0.5625-2.4375-0.84375-4.4688-0.84375-1.6367 0-3.1562 0.16797-4.5625 0.5-1.4062 0.32422-2.7188 0.8125-3.9375 1.4688v-5.8281c1.6445-0.40625 3.2891-0.70703 4.9375-0.90625 1.6562-0.20703 3.3047-0.3125 4.9531-0.3125 4.3203 0 7.4375 0.85547 9.3438 2.5625 1.9141 1.6992 2.875 4.4609 2.875 8.2812z"/>
  </symbol>
  <symbol id="i" overflow="visible">
   <path d="m12.031-30.719v6.7969h7.875v5.4688h-7.875v10.141c0 1.1172 0.21875 1.8711 0.65625 2.2656 0.4375 0.38672 1.3125 0.57812 2.625 0.57812h3.9375v5.4688h-6.5625c-3.0234 0-5.1641-0.62891-6.4219-1.8906-1.2617-1.2578-1.8906-3.3984-1.8906-6.4219v-10.141h-3.7969v-5.4688h3.7969v-6.7969z"/>
  </symbol>
  <symbol id="h" overflow="visible">
   <path d="m19.953-20.422v-12.812h7.6875v33.234h-7.6875v-3.4531c-1.0547 1.4062-2.2148 2.4375-3.4844 3.0938-1.2734 0.65625-2.7422 0.98438-4.4062 0.98438-2.9492 0-5.3711-1.1719-7.2656-3.5156-1.8867-2.3438-2.8281-5.3594-2.8281-9.0469s0.94141-6.7031 2.8281-9.0469c1.8945-2.3438 4.3164-3.5156 7.2656-3.5156 1.6562 0 3.1172 0.33594 4.3906 1 1.2812 0.65625 2.4453 1.6836 3.5 3.0781zm-5.0469 15.484c1.6445 0 2.8945-0.59766 3.75-1.7969 0.86328-1.1953 1.2969-2.9297 1.2969-5.2031 0-2.2812-0.43359-4.0195-1.2969-5.2188-0.85547-1.1953-2.1055-1.7969-3.75-1.7969-1.625 0-2.8711 0.60156-3.7344 1.7969-0.85547 1.1992-1.2812 2.9375-1.2812 5.2188 0 2.2734 0.42578 4.0078 1.2812 5.2031 0.86328 1.1992 2.1094 1.7969 3.7344 1.7969z"/>
  </symbol>
  <symbol id="g" overflow="visible">
   <path d="m16.406-4.9375c1.6328 0 2.8828-0.59766 3.75-1.7969 0.86328-1.1953 1.2969-2.9297 1.2969-5.2031 0-2.2812-0.43359-4.0195-1.2969-5.2188-0.86719-1.1953-2.1172-1.7969-3.75-1.7969-1.6367 0-2.8906 0.60547-3.7656 1.8125-0.875 1.1992-1.3125 2.9336-1.3125 5.2031 0 2.2617 0.4375 3.9961 1.3125 5.2031 0.875 1.1992 2.1289 1.7969 3.7656 1.7969zm-5.0781-15.484c1.0508-1.3945 2.2188-2.4219 3.5-3.0781 1.2812-0.66406 2.7539-1 4.4219-1 2.9453 0 5.3672 1.1719 7.2656 3.5156 1.8945 2.3438 2.8438 5.3594 2.8438 9.0469s-0.94922 6.7031-2.8438 9.0469c-1.8984 2.3438-4.3203 3.5156-7.2656 3.5156-1.668 0-3.1406-0.33594-4.4219-1s-2.4492-1.6914-3.5-3.0781v3.4531h-7.6562v-33.234h7.6562z"/>
  </symbol>
  <symbol id="f" overflow="visible">
   <path d="m0.53125-23.922h7.6562l6.4219 16.234 5.4688-16.234h7.6562l-10.062 26.188c-1.0117 2.6641-2.1953 4.5234-3.5469 5.5781-1.3438 1.0625-3.1211 1.5938-5.3281 1.5938h-4.4219v-5.0156h2.3906c1.3008 0 2.2422-0.21094 2.8281-0.625 0.59375-0.40625 1.0547-1.1484 1.3906-2.2188l0.20312-0.65625z"/>
  </symbol>
  <symbol id="e" overflow="visible">
   <path d="m0.21875-31.891h29.391v6.2188h-10.578v25.672h-8.2188v-25.672h-10.594z"/>
  </symbol>
  <symbol id="n" overflow="visible">
   <path d="m3.6719-23.922h7.6562v23.922h-7.6562zm0-9.3125h7.6562v6.2344h-7.6562z"/>
  </symbol>
  <symbol id="d" overflow="visible">
   <path d="m11.328-3.4531v12.547h-7.6562v-33.016h7.6562v3.5c1.0508-1.3945 2.2188-2.4219 3.5-3.0781 1.2812-0.66406 2.7539-1 4.4219-1 2.9453 0 5.3672 1.1719 7.2656 3.5156 1.8945 2.3438 2.8438 5.3594 2.8438 9.0469s-0.94922 6.7031-2.8438 9.0469c-1.8984 2.3438-4.3203 3.5156-7.2656 3.5156-1.668 0-3.1406-0.33594-4.4219-1s-2.4492-1.6914-3.5-3.0781zm5.0781-15.5c-1.6367 0-2.8906 0.60547-3.7656 1.8125-0.875 1.1992-1.3125 2.9336-1.3125 5.2031 0 2.2617 0.4375 3.9961 1.3125 5.2031 0.875 1.1992 2.1289 1.7969 3.7656 1.7969 1.6328 0 2.8828-0.59766 3.75-1.7969 0.86328-1.1953 1.2969-2.9297 1.2969-5.2031 0-2.2812-0.43359-4.0195-1.2969-5.2188-0.86719-1.1953-2.1172-1.7969-3.75-1.7969z"/>
  </symbol>
  <symbol id="m" overflow="visible">
   <path d="m1.5312-23.922h7.4375l4.0156 16.484 4.0469-16.484h6.375l4.0156 16.312 4.0469-16.312h7.4375l-6.3125 23.922h-8.3438l-4.0469-16.453-4.0156 16.453h-8.3438z"/>
  </symbol>
  <symbol id="l" overflow="visible">
   <path d="m27.734-14.562v14.562h-7.7031v-11.156c0-2.0625-0.046875-3.4844-0.14062-4.2656-0.085937-0.78125-0.24219-1.3594-0.46875-1.7344-0.30469-0.5-0.71094-0.88281-1.2188-1.1562-0.51172-0.28125-1.0938-0.42188-1.75-0.42188-1.5938 0-2.8516 0.61719-3.7656 1.8438-0.90625 1.2305-1.3594 2.9375-1.3594 5.125v11.766h-7.6562v-23.922h7.6562v3.5c1.1445-1.3945 2.3633-2.4219 3.6562-3.0781 1.3008-0.66406 2.7383-1 4.3125-1 2.7578 0 4.8516 0.85156 6.2812 2.5469 1.4375 1.6875 2.1562 4.1523 2.1562 7.3906z"/>
  </symbol>
  <symbol id="k" overflow="visible">
   <path d="m26.219-30.891v6.75c-1.7617-0.78125-3.4766-1.3672-5.1406-1.7656-1.668-0.40625-3.2422-0.60938-4.7188-0.60938-1.9609 0-3.4141 0.27344-4.3594 0.8125-0.9375 0.54297-1.4062 1.3867-1.4062 2.5312 0 0.85547 0.31641 1.5234 0.95312 2 0.63281 0.46875 1.7852 0.875 3.4531 1.2188l3.5 0.70312c3.5391 0.71875 6.0625 1.8047 7.5625 3.25 1.5 1.4492 2.25 3.5117 2.25 6.1875 0 3.5234-1.0469 6.1406-3.1406 7.8594-2.0859 1.7188-5.2734 2.5781-9.5625 2.5781-2.0234 0-4.0547-0.19531-6.0938-0.57812-2.0312-0.38281-4.0625-0.95703-6.0938-1.7188v-6.9375c2.0312 1.0859 3.9922 1.9023 5.8906 2.4531 1.9062 0.54297 3.7422 0.8125 5.5156 0.8125 1.7891 0 3.1602-0.29688 4.1094-0.89062 0.95703-0.60156 1.4375-1.457 1.4375-2.5625 0-1-0.32422-1.7695-0.96875-2.3125-0.64844-0.53906-1.9375-1.0234-3.875-1.4531l-3.1875-0.70312c-3.1875-0.6875-5.5234-1.7734-7-3.2656-1.4688-1.5-2.2031-3.5156-2.2031-6.0469 0-3.1758 1.0234-5.6172 3.0781-7.3281 2.0508-1.707 5-2.5625 8.8438-2.5625 1.75 0 3.5508 0.13281 5.4062 0.39062 1.8516 0.26172 3.7695 0.65625 5.75 1.1875z"/>
  </symbol>
  <symbol id="c" overflow="visible">
   <path d="m15.062-19.031c-1.6992 0-2.9961 0.60938-3.8906 1.8281-0.88672 1.2188-1.3281 2.9766-1.3281 5.2656 0 2.293 0.44141 4.0469 1.3281 5.2656 0.89453 1.2188 2.1914 1.8281 3.8906 1.8281 1.6641 0 2.9375-0.60938 3.8125-1.8281 0.88281-1.2188 1.3281-2.9727 1.3281-5.2656 0-2.2891-0.44531-4.0469-1.3281-5.2656-0.875-1.2188-2.1484-1.8281-3.8125-1.8281zm0-5.4688c4.1133 0 7.3281 1.1094 9.6406 3.3281s3.4688 5.2969 3.4688 9.2344c0 3.9297-1.1562 7.0078-3.4688 9.2344-2.3125 2.2188-5.5273 3.3281-9.6406 3.3281-4.1367 0-7.3711-1.1094-9.7031-3.3281-2.3242-2.2266-3.4844-5.3047-3.4844-9.2344 0-3.9375 1.1602-7.0156 3.4844-9.2344 2.332-2.2188 5.5664-3.3281 9.7031-3.3281z"/>
  </symbol>
 </defs>
 <g>
  <path d="m201.25 262.5h78.75l-13.125 17.5h-13.125c-4.832 0-8.75 3.918-8.75 8.75s3.918 8.75 8.75 8.75h192.5c2.3203 0 4.5469 0.92188 6.1875 2.5625s2.5625 3.8672 2.5625 6.1875v8.75h-218.75c-4.832 0-8.75 3.918-8.75 8.75s3.918 8.75 8.75 8.75h227.5c2.3203 0 4.5469-0.92188 6.1875-2.5625s2.5625-3.8672 2.5625-6.1875v-17.5c0-6.9609-2.7656-13.641-7.6875-18.562s-11.602-7.6875-18.562-7.6875h-13.125l-13.125-17.5h78.75c6.9609 0 13.641-2.7656 18.562-7.6875s7.6875-11.602 7.6875-18.562v-43.75c0-4.832-3.918-8.75-8.75-8.75s-8.75 3.918-8.75 8.75v43.75c0 2.3203-0.92188 4.5469-2.5625 6.1875s-3.8672 2.5625-6.1875 2.5625h-297.5c-4.832 0-8.75-3.918-8.75-8.75v-192.5c0-4.832 3.918-8.75 8.75-8.75h297.5c2.3203 0 4.5469 0.92188 6.1875 2.5625s2.5625 3.8672 2.5625 6.1875v113.75c0 4.832 3.918 8.75 8.75 8.75s8.75-3.918 8.75-8.75v-113.75c0-6.9609-2.7656-13.641-7.6875-18.562s-11.602-7.6875-18.562-7.6875h-297.5c-6.9609 0-13.641 2.7656-18.562 7.6875s-7.6875 11.602-7.6875 18.562v192.5c0 6.9609 2.7656 13.641 7.6875 18.562s11.602 7.6875 18.562 7.6875zm196.88 0 13.125 17.5h-122.5l13.125-17.5z"/>
  <path d="m449.21 391.56c1.7422 1.5352 4.0195 2.3203 6.3359 2.1758 2.3203-0.14453 4.4844-1.2031 6.0195-2.9453l131.25-148.75c3.1992-3.625 2.8555-9.1562-0.76953-12.355s-9.1562-2.8555-12.355 0.76953l-131.25 148.75c-1.5352 1.7422-2.3203 4.0195-2.1758 6.3359 0.14453 2.3203 1.2031 4.4844 2.9453 6.0195z"/>
  <path d="m238.44 390.79c3.1992 3.625 8.7305 3.9688 12.355 0.76953 1.7383-1.5352 2.8008-3.6992 2.9414-6.0195 0.14453-2.3164-0.63672-4.5938-2.1719-6.3359l-131.25-148.75c-3.1992-3.625-8.7305-3.9688-12.355-0.76953s-3.9688 8.7305-0.76953 12.355z"/>
  <path d="m553.81 343.81-43.75 43.75c-1.6875 1.6328-2.6484 3.8711-2.668 6.2188-0.023437 2.3477 0.90234 4.6055 2.5625 6.2617 1.6562 1.6602 3.9141 2.5859 6.2617 2.5625 2.3477-0.019531 4.5859-0.98047 6.2188-2.668l43.75-43.75c3.3164-3.4336 3.2656-8.8906-0.10938-12.266s-8.832-3.4258-12.266-0.10938z"/>
  <path d="m133.81 343.81c-3.4141 3.418-3.4141 8.957 0 12.375l43.75 43.75c3.4336 3.3164 8.8906 3.2656 12.266-0.10938s3.4258-8.832 0.10938-12.266l-43.75-43.75c-3.418-3.4141-8.957-3.4141-12.375 0z"/>
  <path d="m341.25 358.75v17.5c0 4.832 3.918 8.75 8.75 8.75s8.75-3.918 8.75-8.75v-17.5c0-4.832-3.918-8.75-8.75-8.75s-8.75 3.918-8.75 8.75z"/>
  <path d="m405.06 352.56-17.5 17.5c-1.6875 1.6328-2.6484 3.8711-2.668 6.2188-0.023437 2.3477 0.90234 4.6055 2.5625 6.2617 1.6562 1.6602 3.9141 2.5859 6.2617 2.5625 2.3477-0.019531 4.5859-0.98047 6.2188-2.668l17.5-17.5c3.3164-3.4336 3.2656-8.8906-0.10938-12.266s-8.832-3.4258-12.266-0.10938z"/>
  <path d="m282.56 352.56c-3.4141 3.418-3.4141 8.957 0 12.375l17.5 17.5c3.4336 3.3164 8.8906 3.2656 12.266-0.10938s3.4258-8.832 0.10938-12.266l-17.5-17.5c-3.418-3.4141-8.957-3.4141-12.375 0z"/>
  <path d="m493.68 84c-1.8555-6.8867-4.8281-17.113-77.289-3.6328-2.5781-3.6055-7.4648-4.6797-11.32-2.4922l-12.047 7h-0.003906c-5.1172-4.0039-10.762-7.2812-16.773-9.7383v-13.887c0-2.3203-0.92188-4.5469-2.5625-6.1875s-3.8672-2.5625-6.1875-2.5625h-35c-4.832 0-8.75 3.918-8.75 8.75v13.887c-6.0117 2.457-11.656 5.7344-16.773 9.7383l-12.051-7c-2.0078-1.1641-4.3984-1.4805-6.6445-0.87891-2.2422 0.60156-4.1562 2.0703-5.3164 4.082l-17.5 30.309c-1.7617 3.0625-1.5156 6.8828 0.63281 9.6875-64.191 23.203-61.484 33.547-59.781 39.91 1.8828 7 8.4883 10.316 23.031 10.316v-0.003906c9.8555-0.21094 19.688-1.0703 29.434-2.5703 2.0664-0.28906 4.2617-0.64062 6.4141-0.96094 0.12109 0.26172 0.12109 0.55078 0.26953 0.8125l17.5 30.309c1.1602 2.0117 3.0742 3.4805 5.3164 4.082 2.2461 0.60156 4.6367 0.28516 6.6445-0.87891l12.047-6.957h0.003906c5.1172 4 10.762 7.2773 16.773 9.7305v13.887c0 2.3203 0.92188 4.5469 2.5625 6.1875s3.8672 2.5625 6.1875 2.5625h35c2.3203 0 4.5469-0.92188 6.1875-2.5625s2.5625-3.8672 2.5625-6.1875v-13.887c6.0117-2.4492 11.656-5.7188 16.773-9.7109l12.047 6.957h0.003907c2.0078 1.1602 4.3984 1.4766 6.6445 0.875 2.2422-0.59766 4.1562-2.0664 5.3164-4.0781l17.5-30.309v-0.003906c1.1562-2.0078 1.4727-4.3984 0.86719-6.6406-0.60156-2.2422-2.0703-4.1523-4.0781-5.3125l-12.031-6.9492v0.003906c0.94141-6.4297 0.94141-12.961 0-19.391l5.4688-3.1602c9.8945-3.4375 19.145-6.8672 27.359-10.211 33.547-13.633 44.426-22.258 41.562-32.934zm-260 69.738c16.664-8.168 33.895-15.121 51.562-20.809l0.875 0.48047c2.0117 1.1797 4.4102 1.5078 6.6602 0.91016 2.2539-0.59375 4.1758-2.0625 5.3438-4.082 1.1641-2.0195 1.4766-4.418 0.86719-6.668-0.61328-2.25-2.0938-4.1602-4.1211-5.3125l-9.8359-5.6797 8.75-15.156 9.8359 5.6875c3.3516 1.9336 7.5742 1.4375 10.387-1.2227 5.957-5.6406 13.148-9.8086 21-12.184 3.7031-1.1094 6.2383-4.5156 6.2383-8.3789v-11.324h17.5v11.324c0.003906 3.8672 2.5469 7.2773 6.2578 8.3789 7.8516 2.3711 15.043 6.543 21 12.184 2.8086 2.6602 7.0312 3.1562 10.383 1.2227l9.8438-5.6875 8.4805 14.684c-10.324 3.5-21.797 7.1836-34.316 10.902-5.0352-9.0977-13.863-15.477-24.082-17.398-10.219-1.918-20.758 0.82031-28.75 7.4727-7.9922 6.6523-12.602 16.52-12.566 26.918v0.22656c-26.703 6.6523-53.895 11.172-81.312 13.512zm118.58-22.75c-6.6133 1.75-13.031 3.4062-19.25 4.9688 0.95703-4.1328 3.3906-7.7734 6.8398-10.238s7.6836-3.5859 11.902-3.1484c4.2188 0.43359 8.1328 2.3945 11.008 5.5117-3.4414 0.94531-6.9414 1.9023-10.5 2.8711zm14.359 14.164c-1.7422 5.7812-6.3594 10.238-12.195 11.777-5.8359 1.5391-12.055-0.066407-16.418-4.2344 6.1953-1.5469 12.441-3.1484 18.77-4.8477 3.3242-0.84766 6.5898-1.793 9.8438-2.6953zm35.875-5.1523c-0.019531 4.0938-0.51562 8.168-1.4805 12.145-0.90234 3.7695 0.78125 7.6875 4.1406 9.625l9.8359 5.6797-8.75 15.156-9.8438-5.6875c-3.3516-1.9336-7.5781-1.4375-10.387 1.2227-5.957 5.6406-13.148 9.8125-21 12.18-3.7109 1.1055-6.2539 4.5117-6.2578 8.3828v11.297h-17.508v-11.324c-0.003906-3.8672-2.5469-7.2773-6.2578-8.3789-7.8516-2.375-15.039-6.543-21-12.184-2.8086-2.6602-7.0312-3.1562-10.383-1.2227l-9.8359 5.6875-10.332-17.887c11.375-2.1016 23.52-4.6445 36.234-7.5781h-0.003906c5.0664 9.0547 13.902 15.383 24.105 17.266 10.203 1.8867 20.715-0.86719 28.68-7.5117 7.9688-6.6445 12.566-16.492 12.543-26.867v-0.10547c5.8711-1.75 11.578-3.5 17.176-5.25 0.20703 1.7773 0.3125 3.5664 0.32422 5.3555zm28.996-33.855-5.6172-9.7305v0.003907c13.41-2.5352 26.965-4.2344 40.582-5.0859-11.359 5.6016-23.035 10.547-34.965 14.812z"/>
  <path d="m463.75 175c-6.9609 0-13.641 2.7656-18.562 7.6875s-7.6875 11.602-7.6875 18.562 2.7656 13.641 7.6875 18.562 11.602 7.6875 18.562 7.6875 13.641-2.7656 18.562-7.6875 7.6875-11.602 7.6875-18.562-2.7656-13.641-7.6875-18.562-11.602-7.6875-18.562-7.6875zm0 35c-3.5391 0-6.7305-2.1328-8.082-5.4023-1.3555-3.2695-0.60938-7.0312 1.8945-9.5352s6.2656-3.25 9.5352-1.8945c3.2695 1.3516 5.4023 4.543 5.4023 8.082 0 2.3203-0.92188 4.5469-2.5625 6.1875s-3.8672 2.5625-6.1875 2.5625z"/>
  <path d="m236.25 105c6.9609 0 13.641-2.7656 18.562-7.6875s7.6875-11.602 7.6875-18.562-2.7656-13.641-7.6875-18.562-11.602-7.6875-18.562-7.6875-13.641 2.7656-18.562 7.6875-7.6875 11.602-7.6875 18.562 2.7656 13.641 7.6875 18.562 11.602 7.6875 18.562 7.6875zm0-35c3.5391 0 6.7305 2.1328 8.082 5.4023 1.3555 3.2695 0.60938 7.0312-1.8945 9.5352s-6.2656 3.25-9.5352 1.8945c-3.2695-1.3516-5.4023-4.543-5.4023-8.082 0-4.832 3.918-8.75 8.75-8.75z"/>
  <path d="m605.5 490.18-246.75-51.055c0.074219-8.1172 3.9023-15.738 10.367-20.641 6.4688-4.9023 14.84-6.5312 22.672-4.4102l163.98 44.145v-0.003906c0.74219 0.20703 1.5039 0.30859 2.2734 0.30859 4.3945 0.003906 8.1133-3.2461 8.6875-7.6055 0.57813-4.3555-2.168-8.4609-6.4102-9.5977l-163.94-44.152c-13.145-3.5742-27.203-0.78906-37.992 7.5234-3.1719 2.4531-5.9922 5.3242-8.3828 8.5391-2.3906-3.2148-5.2109-6.0859-8.3828-8.5391-10.785-8.3203-24.848-11.102-37.992-7.5234l-163.98 44.152c-7.4297 2.0078-13.992 6.4062-18.672 12.516-4.6797 6.1094-7.2188 13.59-7.2266 21.285v11.078l-19.25 3.9883c-4.0664 0.83203-6.9922 4.4062-7 8.5586v35c-0.011719 2.4805 1.0273 4.8516 2.8633 6.5195 1.8359 1.668 4.293 2.4805 6.7617 2.2305l114.36-11.875c2.3398-0.19531 4.5039-1.3281 6.0039-3.1367 1.4961-1.8086 2.2031-4.1445 1.9609-6.4844-0.23828-2.3359-1.4102-4.4766-3.25-5.9414-1.8359-1.4648-4.1875-2.125-6.5195-1.8398l-104.68 10.824v-18.176l236.25-48.879v33.008c0 4.832 3.918 8.75 8.75 8.75s8.75-3.918 8.75-8.75v-33.004l236.25 48.879v18.172l-209.12-21.629c-2.4688-0.25-4.9258 0.5625-6.7617 2.2305-1.8359 1.668-2.875 4.0391-2.8633 6.5195v5.082c0 2.3203-0.92188 4.5469-2.5625 6.1875s-3.8672 2.5625-6.1875 2.5625h-35c-4.832 0-8.75-3.918-8.75-8.75v-5.1289c0.011719-2.4805-1.0273-4.8477-2.8633-6.5156-1.8359-1.668-4.293-2.4805-6.7617-2.2344l-69.59 7.2031c-4.7305 0.58203-8.1289 4.8438-7.6367 9.5859 0.49219 4.7422 4.6914 8.2188 9.4414 7.8164l60.375-6.2383c1.0547 6.0781 4.2188 11.594 8.9336 15.574 4.7148 3.9766 10.68 6.168 16.852 6.1875h35c6.1758 0 12.156-2.1758 16.883-6.1484 4.7305-3.9727 7.9062-9.4844 8.9727-15.57l209.52 21.719c0.30469 0 0.60547 0.042969 0.875 0.042969 2.3203 0 4.5469-0.92188 6.1875-2.5625s2.5625-3.8672 2.5625-6.1875v-35.043c-0.003906-4.1562-2.9297-7.7344-7-8.5664zm-474.25-15.059c0-3.8477 1.2695-7.5898 3.6094-10.645 2.3438-3.0547 5.625-5.25 9.3398-6.25l163.98-44.145c7.8359-2.1328 16.219-0.51172 22.691 4.3906 6.4766 4.9023 10.309 12.531 10.383 20.652l-210 43.441z"/>
 </g>
</svg>
