<svg xmlns="http://www.w3.org/2000/svg" xmlns:xlink="http://www.w3.org/1999/xlink" version="1.1" x="0px" y="0px" viewBox="0 5 100 100" style="enable-background:new 0 0 100 100;" xml:space="preserve"><g><rect x="35.8" y="31.6" width="13" height="4.7"/><rect x="35.8" y="82.6" width="13" height="3.1"/><rect x="9.1" y="27.4" width="11" height="53.8"/><rect x="9.1" y="20.8" width="11" height="5.6"/><rect x="9.1" y="82.5" width="11" height="3.8"/><rect x="64.2" y="23" transform="matrix(0.9526 -0.3043 0.3043 0.9526 -4.5638 22.4147)" width="11" height="5.6"/><rect x="73.5" y="28.1" transform="matrix(0.9526 -0.3043 0.3043 0.9526 -13.0099 26.6402)" width="11" height="53.8"/><rect x="82.6" y="81.8" transform="matrix(0.9526 -0.3043 0.3043 0.9526 -21.2833 30.7785)" width="11" height="3.8"/><rect x="22" y="35.7" width="11" height="44.5"/><rect x="22" y="21.6" width="11" height="5.6"/><rect x="22" y="28.6" width="11" height="5.6"/><rect x="22" y="81.2" width="11" height="5.8"/><rect x="51.5" y="42.1" width="14.9" height="4.3"/><rect x="51.5" y="82.6" width="14.9" height="4.5"/><path d="M35.8,81.6h13V37h-13V81.6z M43.7,41.6h0.9v35.7h-0.9V41.6z M39.9,41.6h0.9v35.7h-0.9V41.6z"/><path d="M51.5,81.8h14.9V47.5H51.5V81.8z M58.9,70.3c1.6,0,3,1.7,3,3.7c0,2.1-1.3,3.7-3,3.7c-1.6,0-3-1.7-3-3.7   C56,72,57.3,70.3,58.9,70.3z"/></g></svg>