<?xml version="1.0" encoding="UTF-8"?>
<svg width="700pt" height="700pt" version="1.1" viewBox="0 0 700 550" xmlns="http://www.w3.org/2000/svg" xmlns:xlink="http://www.w3.org/1999/xlink">
 <defs>
  <symbol id="u" overflow="visible">
   <path d="m3.7812-0.21875c-0.19922 0.09375-0.40234 0.16797-0.60938 0.21875-0.21094 0.050781-0.42969 0.078125-0.65625 0.078125-0.6875 0-1.2344-0.1875-1.6406-0.5625-0.39844-0.38281-0.59375-0.90625-0.59375-1.5625s0.19531-1.1758 0.59375-1.5625c0.40625-0.38281 0.95312-0.57812 1.6406-0.57812 0.22656 0 0.44531 0.027344 0.65625 0.078125 0.20703 0.054687 0.41016 0.13281 0.60938 0.23438v0.84375c-0.19922-0.13281-0.39844-0.23438-0.59375-0.29688-0.1875-0.0625-0.38672-0.09375-0.59375-0.09375-0.375 0-0.67188 0.125-0.89062 0.375-0.21875 0.24219-0.32812 0.57422-0.32812 1 0 0.41797 0.10938 0.75 0.32812 1 0.21875 0.24219 0.51562 0.35938 0.89062 0.35938 0.20703 0 0.40625-0.03125 0.59375-0.09375 0.19531-0.0625 0.39453-0.16016 0.59375-0.29688z"/>
  </symbol>
  <symbol id="c" overflow="visible">
   <path d="m2.7656-2.25c-0.085937-0.039062-0.17188-0.066406-0.26562-0.078125-0.085938-0.019531-0.16797-0.03125-0.25-0.03125-0.25 0-0.44922 0.085937-0.59375 0.25-0.13672 0.15625-0.20312 0.38672-0.20312 0.6875v1.4219h-0.98438v-3.0781h0.98438v0.5c0.13281-0.19531 0.28125-0.34375 0.4375-0.4375 0.16406-0.09375 0.36328-0.14062 0.59375-0.14062h0.10938c0.039062 0 0.097656 0.007812 0.17188 0.015625z"/>
  </symbol>
  <symbol id="a" overflow="visible">
   <path d="m3.5469-1.5469v0.28125h-2.2969c0.019531 0.23047 0.10156 0.40234 0.25 0.51562 0.14453 0.11719 0.34375 0.17188 0.59375 0.17188 0.20703 0 0.42188-0.03125 0.64062-0.09375s0.44141-0.15625 0.67188-0.28125v0.76562c-0.23047 0.085938-0.46484 0.14844-0.70312 0.1875-0.23047 0.050781-0.46094 0.078125-0.6875 0.078125-0.5625 0-1-0.14062-1.3125-0.42188-0.30469-0.28125-0.45312-0.67969-0.45312-1.2031 0-0.5 0.14844-0.89062 0.45312-1.1719 0.30078-0.28906 0.71875-0.4375 1.25-0.4375 0.48828 0 0.875 0.14844 1.1562 0.4375 0.28906 0.29297 0.4375 0.68359 0.4375 1.1719zm-1-0.32812c0-0.1875-0.058594-0.33594-0.17188-0.45312-0.10547-0.11328-0.24609-0.17188-0.42188-0.17188-0.19922 0-0.35938 0.054688-0.48438 0.15625-0.11719 0.10547-0.18359 0.26172-0.20312 0.46875z"/>
  </symbol>
  <symbol id="f" overflow="visible">
   <path d="m1.8594-1.3906c-0.21094 0-0.36719 0.039063-0.46875 0.10938-0.10547 0.074219-0.15625 0.17969-0.15625 0.3125 0 0.125 0.039063 0.22656 0.125 0.29688 0.082031 0.0625 0.19531 0.09375 0.34375 0.09375 0.1875 0 0.34375-0.0625 0.46875-0.1875 0.13281-0.13281 0.20312-0.30469 0.20312-0.51562v-0.10938zm1.5-0.375v1.7656h-0.98438v-0.45312c-0.13672 0.1875-0.28906 0.32422-0.45312 0.40625-0.16797 0.082031-0.37109 0.125-0.60938 0.125-0.3125 0-0.57031-0.09375-0.76562-0.28125-0.19922-0.1875-0.29688-0.42578-0.29688-0.71875 0-0.36328 0.11719-0.62891 0.35938-0.79688 0.25-0.16406 0.64062-0.25 1.1719-0.25h0.59375v-0.078125c0-0.15625-0.0625-0.26953-0.1875-0.34375-0.125-0.070313-0.32031-0.10938-0.57812-0.10938-0.21094 0-0.40625 0.023438-0.59375 0.0625-0.17969 0.042969-0.34375 0.10547-0.5 0.1875v-0.75c0.20703-0.050781 0.41406-0.085938 0.625-0.10938 0.21875-0.03125 0.42969-0.046875 0.64062-0.046875 0.5625 0 0.96094 0.10938 1.2031 0.32812 0.25 0.21875 0.375 0.57422 0.375 1.0625z"/>
  </symbol>
  <symbol id="b" overflow="visible">
   <path d="m1.5469-3.9531v0.875h1.0156v0.70312h-1.0156v1.2969c0 0.14844 0.023437 0.24609 0.078125 0.29688 0.0625 0.054688 0.17578 0.078125 0.34375 0.078125h0.51562v0.70312h-0.84375c-0.39844 0-0.67969-0.078125-0.84375-0.23438-0.15625-0.16406-0.23438-0.44531-0.23438-0.84375v-1.2969h-0.48438v-0.70312h0.48438v-0.875z"/>
  </symbol>
  <symbol id="k" overflow="visible">
   <path d="m2.5781-2.6406v-1.6406h0.98438v4.2812h-0.98438v-0.45312c-0.13672 0.1875-0.28906 0.32422-0.45312 0.40625-0.16797 0.082031-0.35547 0.125-0.5625 0.125-0.38672 0-0.70312-0.14844-0.95312-0.45312-0.24219-0.30078-0.35938-0.69141-0.35938-1.1719 0-0.46875 0.11719-0.85156 0.35938-1.1562 0.25-0.30078 0.56641-0.45312 0.95312-0.45312 0.20703 0 0.39453 0.042969 0.5625 0.125 0.16406 0.085938 0.31641 0.21484 0.45312 0.39062zm-0.65625 2c0.20703 0 0.36719-0.070313 0.48438-0.21875 0.11328-0.15625 0.17188-0.38281 0.17188-0.6875 0-0.28906-0.058594-0.50781-0.17188-0.65625-0.11719-0.15625-0.27734-0.23438-0.48438-0.23438-0.21094 0-0.37109 0.078125-0.48438 0.23438-0.10547 0.14844-0.15625 0.36719-0.15625 0.65625 0 0.30469 0.050781 0.53125 0.15625 0.6875 0.11328 0.14844 0.27344 0.21875 0.48438 0.21875z"/>
  </symbol>
  <symbol id="j" overflow="visible">
   <path d="m2.1094-0.64062c0.21875 0 0.37891-0.070313 0.48438-0.21875 0.11328-0.15625 0.17188-0.38281 0.17188-0.6875 0-0.28906-0.058594-0.50781-0.17188-0.65625-0.10547-0.15625-0.26562-0.23438-0.48438-0.23438-0.21094 0-0.37109 0.078125-0.48438 0.23438-0.11719 0.14844-0.17188 0.36719-0.17188 0.65625 0 0.29297 0.054687 0.51562 0.17188 0.67188 0.11328 0.15625 0.27344 0.23438 0.48438 0.23438zm-0.65625-2c0.13281-0.17578 0.28516-0.30469 0.45312-0.39062 0.16406-0.082031 0.35938-0.125 0.57812-0.125 0.375 0 0.67969 0.15234 0.92188 0.45312 0.25 0.30469 0.375 0.6875 0.375 1.1562 0 0.48047-0.125 0.87109-0.375 1.1719-0.24219 0.30469-0.54688 0.45312-0.92188 0.45312-0.21875 0-0.41406-0.042969-0.57812-0.125-0.16797-0.082031-0.32031-0.21875-0.45312-0.40625v0.45312h-0.98438v-4.2812h0.98438z"/>
  </symbol>
  <symbol id="e" overflow="visible">
   <path d="m0.0625-3.0781h1l0.82812 2.0938 0.70312-2.0938h0.98438l-1.2969 3.375c-0.13672 0.34375-0.29297 0.58203-0.46875 0.71875-0.16797 0.13281-0.39062 0.20312-0.67188 0.20312h-0.57812v-0.65625h0.3125c0.16406 0 0.28516-0.027344 0.35938-0.078125 0.082031-0.054687 0.14453-0.14844 0.1875-0.28125l0.015625-0.078125z"/>
  </symbol>
  <symbol id="i" overflow="visible">
   <path d="m0.51562-4.1094h2.8594v0.79688h-1.7969v0.76562h1.6875v0.79688h-1.6875v0.95312h1.8594v0.79688h-2.9219z"/>
  </symbol>
  <symbol id="h" overflow="visible">
   <path d="m0.4375-1.2031v-1.875h1v0.29688c0 0.16797-0.007812 0.38281-0.015625 0.64062v0.5c0 0.25 0.003906 0.43359 0.015625 0.54688 0.019531 0.10547 0.046875 0.17969 0.078125 0.21875 0.039063 0.074219 0.09375 0.125 0.15625 0.15625s0.13281 0.046875 0.21875 0.046875c0.20703 0 0.36719-0.078125 0.48438-0.23438 0.125-0.15625 0.1875-0.375 0.1875-0.65625v-1.5156h0.98438v3.0781h-0.98438v-0.45312c-0.15625 0.1875-0.32031 0.32422-0.48438 0.40625-0.16797 0.082031-0.35156 0.125-0.54688 0.125-0.35547 0-0.625-0.10938-0.8125-0.32812s-0.28125-0.53516-0.28125-0.95312z"/>
  </symbol>
  <symbol id="g" overflow="visible">
   <path d="m2.9688-2.9844v0.79688c-0.13672-0.09375-0.27344-0.16016-0.40625-0.20312-0.13672-0.039063-0.27734-0.0625-0.42188-0.0625-0.27344 0-0.48438 0.085937-0.64062 0.25-0.15625 0.15625-0.23438 0.375-0.23438 0.65625 0 0.29297 0.078125 0.52344 0.23438 0.6875 0.15625 0.15625 0.36719 0.23438 0.64062 0.23438 0.15625 0 0.30078-0.019531 0.4375-0.0625 0.14453-0.050781 0.27344-0.11719 0.39062-0.20312v0.79688c-0.15625 0.0625-0.3125 0.10156-0.46875 0.125-0.15625 0.03125-0.32031 0.046875-0.48438 0.046875-0.55469 0-0.98438-0.14062-1.2969-0.42188-0.3125-0.28906-0.46875-0.69141-0.46875-1.2031 0-0.5 0.15625-0.89062 0.46875-1.1719 0.3125-0.28906 0.74219-0.4375 1.2969-0.4375 0.16406 0 0.32812 0.015625 0.48438 0.046875 0.15625 0.023437 0.3125 0.0625 0.46875 0.125z"/>
  </symbol>
  <symbol id="t" overflow="visible">
   <path d="m0.46875-4.2812h0.98438v4.2812h-0.98438z"/>
  </symbol>
  <symbol id="s" overflow="visible">
   <path d="m1.4531-0.45312v1.625h-0.98438v-4.25h0.98438v0.4375c0.13281-0.17578 0.28516-0.30469 0.45312-0.39062 0.16406-0.082031 0.35938-0.125 0.57812-0.125 0.375 0 0.67969 0.15234 0.92188 0.45312 0.25 0.30469 0.375 0.6875 0.375 1.1562 0 0.48047-0.125 0.87109-0.375 1.1719-0.24219 0.30469-0.54688 0.45312-0.92188 0.45312-0.21875 0-0.41406-0.042969-0.57812-0.125-0.16797-0.082031-0.32031-0.21875-0.45312-0.40625zm0.65625-1.9844c-0.21094 0-0.37109 0.078125-0.48438 0.23438-0.11719 0.14844-0.17188 0.36719-0.17188 0.65625 0 0.29297 0.054687 0.51562 0.17188 0.67188 0.11328 0.15625 0.27344 0.23438 0.48438 0.23438 0.21875 0 0.37891-0.070313 0.48438-0.21875 0.11328-0.15625 0.17188-0.38281 0.17188-0.6875 0-0.28906-0.058594-0.50781-0.17188-0.65625-0.10547-0.15625-0.26562-0.23438-0.48438-0.23438z"/>
  </symbol>
  <symbol id="r" overflow="visible">
   <path d="m2.5-4.2812v0.64062h-0.54688c-0.13672 0-0.23438 0.027344-0.29688 0.078125-0.054688 0.054688-0.078125 0.14062-0.078125 0.26562v0.21875h0.84375v0.70312h-0.84375v2.375h-0.98438v-2.375h-0.48438v-0.70312h0.48438v-0.21875c0-0.33203 0.09375-0.57812 0.28125-0.73438 0.1875-0.16406 0.47656-0.25 0.875-0.25z"/>
  </symbol>
  <symbol id="d" overflow="visible">
   <path d="m1.9375-2.4531c-0.21875 0-0.38672 0.078125-0.5 0.23438-0.11719 0.15625-0.17188 0.38281-0.17188 0.67188 0 0.30469 0.054687 0.53125 0.17188 0.6875 0.11328 0.15625 0.28125 0.23438 0.5 0.23438s0.38281-0.078125 0.5-0.23438c0.11328-0.15625 0.17188-0.38281 0.17188-0.6875 0-0.28906-0.058594-0.51562-0.17188-0.67188-0.11719-0.15625-0.28125-0.23438-0.5-0.23438zm0-0.70312c0.53125 0 0.94141 0.14844 1.2344 0.4375 0.30078 0.28125 0.45312 0.67188 0.45312 1.1719 0 0.51172-0.15234 0.91406-0.45312 1.2031-0.29297 0.28125-0.70312 0.42188-1.2344 0.42188s-0.94922-0.14062-1.25-0.42188c-0.29297-0.28906-0.4375-0.69141-0.4375-1.2031 0-0.5 0.14453-0.89062 0.4375-1.1719 0.30078-0.28906 0.71875-0.4375 1.25-0.4375z"/>
  </symbol>
  <symbol id="q" overflow="visible">
   <path d="m3.3281-2.5781c0.125-0.1875 0.26953-0.32812 0.4375-0.42188 0.17578-0.10156 0.36719-0.15625 0.57812-0.15625 0.35156 0 0.625 0.10938 0.8125 0.32812s0.28125 0.53906 0.28125 0.95312v1.875h-1v-1.6094-0.0625-0.125c0-0.21875-0.03125-0.375-0.09375-0.46875-0.0625-0.10156-0.16797-0.15625-0.3125-0.15625-0.1875 0-0.33594 0.078125-0.4375 0.23438-0.09375 0.15625-0.14062 0.38281-0.14062 0.67188v1.5156h-1v-1.6094c0-0.34375-0.03125-0.5625-0.09375-0.65625-0.054687-0.10156-0.15625-0.15625-0.3125-0.15625-0.1875 0-0.33594 0.078125-0.4375 0.23438-0.10547 0.15625-0.15625 0.38281-0.15625 0.67188v1.5156h-0.98438v-3.0781h0.98438v0.4375c0.125-0.16406 0.26562-0.28906 0.42188-0.375 0.15625-0.09375 0.32812-0.14062 0.51562-0.14062 0.21875 0 0.40625 0.054688 0.5625 0.15625 0.16406 0.10547 0.28906 0.24609 0.375 0.42188z"/>
  </symbol>
  <symbol id="p" overflow="visible">
   <path d="m3.5781-1.875v1.875h-1v-1.4375c0-0.26953-0.007813-0.45312-0.015625-0.54688-0.011719-0.10156-0.03125-0.17969-0.0625-0.23438-0.03125-0.0625-0.085938-0.10938-0.15625-0.14062-0.0625-0.039063-0.13672-0.0625-0.21875-0.0625-0.21094 0-0.375 0.085937-0.5 0.25-0.11719 0.15625-0.17188 0.375-0.17188 0.65625v1.5156h-0.98438v-4.2812h0.98438v1.6406c0.15625-0.17578 0.31641-0.30469 0.48438-0.39062 0.16406-0.082031 0.34766-0.125 0.54688-0.125 0.35156 0 0.625 0.10938 0.8125 0.32812s0.28125 0.53906 0.28125 0.95312z"/>
  </symbol>
  <symbol id="o" overflow="visible">
   <path d="m0.51562-4.1094h1.1875l1.5 2.8125v-2.8125h1v4.1094h-1.1875l-1.5-2.8281v2.8281h-1z"/>
  </symbol>
  <symbol id="n" overflow="visible">
   <path d="m3.5781-1.875v1.875h-1v-1.4375c0-0.26953-0.007813-0.45312-0.015625-0.54688-0.011719-0.10156-0.03125-0.17969-0.0625-0.23438-0.03125-0.0625-0.085938-0.10938-0.15625-0.14062-0.0625-0.039063-0.13672-0.0625-0.21875-0.0625-0.21094 0-0.375 0.085937-0.5 0.25-0.11719 0.15625-0.17188 0.375-0.17188 0.65625v1.5156h-0.98438v-3.0781h0.98438v0.4375c0.15625-0.17578 0.31641-0.30469 0.48438-0.39062 0.16406-0.082031 0.34766-0.125 0.54688-0.125 0.35156 0 0.625 0.10938 0.8125 0.32812s0.28125 0.53906 0.28125 0.95312z"/>
  </symbol>
  <symbol id="m" overflow="visible">
   <path d="m0.51562-4.1094h1.7656c0.51953 0 0.92188 0.11719 1.2031 0.34375 0.28125 0.23047 0.42188 0.5625 0.42188 1 0 0.42969-0.14062 0.76172-0.42188 1-0.28125 0.23047-0.68359 0.34375-1.2031 0.34375h-0.70312v1.4219h-1.0625zm1.0625 0.76562v1.1562h0.59375c0.19531 0 0.35156-0.050781 0.46875-0.15625 0.11328-0.10156 0.17188-0.24219 0.17188-0.42188 0-0.1875-0.058594-0.32812-0.17188-0.42188-0.11719-0.10156-0.27344-0.15625-0.46875-0.15625z"/>
  </symbol>
  <symbol id="l" overflow="visible">
   <path d="m0.46875-3.0781h0.98438v3.0156c0 0.41406-0.10156 0.73438-0.29688 0.95312-0.19922 0.21875-0.48438 0.32812-0.85938 0.32812h-0.48438v-0.65625h0.17188c0.1875 0 0.3125-0.042969 0.375-0.125 0.070313-0.085938 0.10938-0.25 0.10938-0.5zm0-1.2031h0.98438v0.79688h-0.98438z"/>
  </symbol>
 </defs>
 <g>
  <path d="m183.21 251.49c-20.547 10.836-38.422 26.754-51.695 46.031-9.1445 13.281-15.938 27.852-20.195 43.301l17.418 4.8008c3.7227-13.504 9.6641-26.238 17.66-37.855 11.621-16.883 27.266-30.816 45.242-40.297z"/>
  <path d="m106.13 380.08 18.066-0.089844c-0.027344-5.8633 0.34375-11.754 1.1094-17.512l-17.906-2.3789c-0.87891 6.5742-1.3047 13.297-1.2695 19.98z"/>
  <path d="m169.36 451.61h162.58v-90.324h-162.58zm18.062-72.258h126.45v54.195l-126.45-0.003906z"/>
  <path d="m169.36 469.68h54.195v18.066h-54.195z"/>
  <path d="m241.61 469.68h18.066v18.066h-18.066z"/>
  <path d="m277.74 469.68h54.195v18.066h-54.195z"/>
  <path d="m241.61 397.42h18.066v18.066h-18.066z"/>
  <path d="m277.74 397.42h18.066v18.066h-18.066z"/>
  <path d="m205.48 397.42h18.066v18.066h-18.066z"/>
  <path d="m622.77 16.121-8.8867-8.8867c-4.6641-4.6641-10.867-7.2344-17.465-7.2344-2.6602 0-5.2891 0.42578-7.8125 1.2695l-57.957 19.316v20.836l-28.234 28.234c-26.883-10.066-57.531-8.293-83.422 6.1758l-2.6641-2.6641c-7.043-7.043-18.504-7.043-25.551 0l-12.77 12.773c-7.043 7.043-7.043 18.504 0 25.547l2.6641 2.6641c-14.469 25.891-16.242 56.539-6.1758 83.422l-28.387 28.387c-7.3984-4.6055-15.145-8.6953-23.203-12.215v-78.262c0-14.941-12.156-27.098-27.098-27.098v-54.191c9.9609 0 18.066-8.1055 18.066-18.066v-18.062c0-9.9609-8.1055-18.066-18.066-18.066h-90.324c-9.9609 0-18.066 8.1055-18.066 18.066v18.066c0 9.9609 8.1055 18.066 18.066 18.066v54.195c-14.941 0-27.098 12.156-27.098 27.098v78.262c-30.949 13.504-57.355 35.285-76.637 63.293-20.945 30.426-31.926 66.117-31.742 103.21 0.48047 98.395 80.914 179.02 179.3 179.74 0.45312 0.003906 0.89844 0.003906 1.3516 0.003906 48.012 0 93.16-18.594 127.26-52.445 34.414-34.164 53.371-79.695 53.371-128.2 0-34.02-9.4023-66.836-27.258-95.449l28.406-28.406c11.258 4.2148 23.172 6.3828 35.129 6.3828 16.59 0 33.25-4.1211 48.297-12.531l2.6484 2.6484c3.4102 3.4102 7.9492 5.293 12.773 5.293 4.8242 0 9.3633-1.8789 12.773-5.293l12.773-12.773c3.4102-3.4102 5.293-7.9492 5.293-12.773s-1.8789-9.3633-5.293-12.773l-2.6641-2.6641c14.469-25.891 16.242-56.539 6.1758-83.422l28.234-28.238h20.832l19.32-57.957c0.83984-2.5234 1.2656-5.1523 1.2656-7.8125 0.003906-6.5977-2.5664-12.801-7.2305-17.465zm-417.28 1.9453h90.324l0.011718 18.066h-0.011718-90.324zm18.062 36.129h54.195v54.195h-54.195zm141.64 440.54c-30.684 30.469-71.316 47.203-114.53 47.199-0.40234 0-0.8125 0-1.2188-0.003906-88.547-0.64453-160.94-73.211-161.37-161.76-0.32812-67.473 39.973-127.14 102.68-152l5.7031-2.2617 0.003906-90.418c0-4.9805 4.0508-9.0312 9.0312-9.0312h90.324c4.9805 0 9.0312 4.0508 9.0312 9.0312v90.418l5.7031 2.2617c62.379 24.734 102.68 84.078 102.68 151.19 0 43.648-17.062 84.629-48.043 115.38zm28.348-225.88c-9.4414-12.207-20.301-23.086-32.355-32.418l21.711-21.711c3.9766 6.4688 8.7305 12.562 14.277 18.109 5.5469 5.5469 11.645 10.293 18.117 14.273zm16.406-48.793c-24.543-24.543-30.492-61.918-15.883-92.523l13.816 13.816c-8.1133 22.781-2.5195 48.574 14.84 65.934 12.113 12.113 28.332 18.504 44.766 18.504 7.1211 0 14.277-1.2148 21.164-3.6641l13.816 13.816c-30.605 14.609-67.977 8.6602-92.52-15.883zm12.781-63.859 51.078 51.078c-13.812 1.957-28.105-2.5547-38.312-12.766-10.207-10.207-14.723-24.5-12.766-38.312zm121.34 70.246-12.773 12.773-140.51-140.51 12.773-12.773 140.52 140.5-0.007812 0.007813zm-31.941-57.488-51.078-51.078c13.812-1.9531 28.105 2.5547 38.312 12.766 10.207 10.211 14.723 24.5 12.766 38.312zm14.848 14.848c8.1133-22.781 2.5195-48.574-14.84-65.934s-43.152-22.953-65.934-14.84l-13.816-13.816c30.605-14.613 67.977-8.6641 92.52 15.883 24.547 24.543 30.492 61.918 15.883 92.523zm10.707-91.48c-5.5469-5.5469-11.641-10.301-18.109-14.277l20.113-20.117 32.391 32.391-20.117 20.113c-3.9766-6.4688-8.7305-12.562-14.277-18.109zm73.922-56.645-15.199 45.605h-7.8125l-39.871-39.871v-7.8125l45.605-15.203c2.3516-0.78516 5.0312-0.15625 6.7891 1.6016l8.8867 8.8867c1.2539 1.2539 1.9453 2.918 1.9453 4.6914-0.003906 0.71875-0.11719 1.4258-0.34375 2.1016z"/>
 </g>
</svg>
