<?xml version="1.0" encoding="UTF-8"?>
<svg width="700pt" height="700pt" version="1.1" viewBox="0 0 700 700" xmlns="http://www.w3.org/2000/svg" xmlns:xlink="http://www.w3.org/1999/xlink">
 <defs>
  <symbol id="o" overflow="visible">
   <path d="m29.312-1.75c-1.5117 0.78125-3.0898 1.3711-4.7344 1.7656-1.6367 0.40625-3.3398 0.60938-5.1094 0.60938-5.3125 0-9.5273-1.4844-12.641-4.4531-3.1055-2.9688-4.6562-7-4.6562-12.094s1.5508-9.125 4.6562-12.094c3.1133-2.9688 7.3281-4.4531 12.641-4.4531 1.7695 0 3.4727 0.19922 5.1094 0.59375 1.6445 0.39844 3.2227 0.99219 4.7344 1.7812v6.5938c-1.5312-1.0391-3.0391-1.8008-4.5156-2.2812-1.4805-0.48828-3.0391-0.73438-4.6719-0.73438-2.9375 0-5.2461 0.94531-6.9219 2.8281-1.6797 1.875-2.5156 4.4648-2.5156 7.7656 0 3.293 0.83594 5.8828 2.5156 7.7656 1.6758 1.875 3.9844 2.8125 6.9219 2.8125 1.6328 0 3.1914-0.23828 4.6719-0.71875 1.4766-0.48828 2.9844-1.2539 4.5156-2.2969z"/>
  </symbol>
  <symbol id="j" overflow="visible">
   <path d="m21.453-17.406c-0.67969-0.3125-1.3516-0.53906-2.0156-0.6875-0.65625-0.15625-1.3203-0.23438-1.9844-0.23438-1.9688 0-3.4844 0.63281-4.5469 1.8906-1.0547 1.2617-1.5781 3.0703-1.5781 5.4219v11.016h-7.6562v-23.922h7.6562v3.9219c0.97656-1.5625 2.1016-2.7031 3.375-3.4219 1.2812-0.71875 2.8125-1.0781 4.5938-1.0781 0.25 0 0.52344 0.011719 0.82812 0.03125 0.30078 0.023438 0.73438 0.070312 1.2969 0.14062z"/>
  </symbol>
  <symbol id="b" overflow="visible">
   <path d="m27.562-12.031v2.1875h-17.891c0.1875 1.793 0.83203 3.1367 1.9375 4.0312 1.1133 0.89844 2.6719 1.3438 4.6719 1.3438 1.6016 0 3.25-0.23438 4.9375-0.70312 1.6875-0.47656 3.4219-1.2031 5.2031-2.1719v5.8906c-1.8047 0.6875-3.6094 1.2031-5.4219 1.5469-1.8125 0.35156-3.6211 0.53125-5.4219 0.53125-4.3359 0-7.7031-1.0977-10.109-3.2969-2.3984-2.207-3.5938-5.2969-3.5938-9.2656 0-3.9062 1.1758-6.9727 3.5312-9.2031 2.3633-2.2383 5.6094-3.3594 9.7344-3.3594 3.7578 0 6.7695 1.1367 9.0312 3.4062 2.2578 2.2617 3.3906 5.2812 3.3906 9.0625zm-7.8594-2.5312c0-1.457-0.42969-2.6289-1.2812-3.5156-0.84375-0.89453-1.9492-1.3438-3.3125-1.3438-1.4922 0-2.6992 0.41797-3.625 1.25-0.91797 0.83594-1.4922 2.0391-1.7188 3.6094z"/>
  </symbol>
  <symbol id="a" overflow="visible">
   <path d="m14.391-10.766c-1.5938 0-2.793 0.27344-3.5938 0.8125-0.80469 0.54297-1.2031 1.3398-1.2031 2.3906 0 0.96875 0.32031 1.7305 0.96875 2.2812 0.64453 0.54297 1.5469 0.8125 2.7031 0.8125 1.4375 0 2.6445-0.51562 3.625-1.5469 0.98828-1.0312 1.4844-2.3203 1.4844-3.875v-0.875zm11.688-2.8906v13.656h-7.7031v-3.5469c-1.0312 1.4492-2.1875 2.5078-3.4688 3.1719s-2.8398 1-4.6719 1c-2.4805 0-4.4961-0.72266-6.0469-2.1719-1.543-1.4453-2.3125-3.3203-2.3125-5.625 0-2.8125 0.96094-4.8672 2.8906-6.1719 1.9375-1.3125 4.9688-1.9688 9.0938-1.9688h4.5156v-0.60938c0-1.207-0.48047-2.0938-1.4375-2.6562-0.94922-0.5625-2.4375-0.84375-4.4688-0.84375-1.6367 0-3.1562 0.16797-4.5625 0.5-1.4062 0.32422-2.7188 0.8125-3.9375 1.4688v-5.8281c1.6445-0.40625 3.2891-0.70703 4.9375-0.90625 1.6562-0.20703 3.3047-0.3125 4.9531-0.3125 4.3203 0 7.4375 0.85547 9.3438 2.5625 1.9141 1.6992 2.875 4.4609 2.875 8.2812z"/>
  </symbol>
  <symbol id="i" overflow="visible">
   <path d="m12.031-30.719v6.7969h7.875v5.4688h-7.875v10.141c0 1.1172 0.21875 1.8711 0.65625 2.2656 0.4375 0.38672 1.3125 0.57812 2.625 0.57812h3.9375v5.4688h-6.5625c-3.0234 0-5.1641-0.62891-6.4219-1.8906-1.2617-1.2578-1.8906-3.3984-1.8906-6.4219v-10.141h-3.7969v-5.4688h3.7969v-6.7969z"/>
  </symbol>
  <symbol id="h" overflow="visible">
   <path d="m19.953-20.422v-12.812h7.6875v33.234h-7.6875v-3.4531c-1.0547 1.4062-2.2148 2.4375-3.4844 3.0938-1.2734 0.65625-2.7422 0.98438-4.4062 0.98438-2.9492 0-5.3711-1.1719-7.2656-3.5156-1.8867-2.3438-2.8281-5.3594-2.8281-9.0469s0.94141-6.7031 2.8281-9.0469c1.8945-2.3438 4.3164-3.5156 7.2656-3.5156 1.6562 0 3.1172 0.33594 4.3906 1 1.2812 0.65625 2.4453 1.6836 3.5 3.0781zm-5.0469 15.484c1.6445 0 2.8945-0.59766 3.75-1.7969 0.86328-1.1953 1.2969-2.9297 1.2969-5.2031 0-2.2812-0.43359-4.0195-1.2969-5.2188-0.85547-1.1953-2.1055-1.7969-3.75-1.7969-1.625 0-2.8711 0.60156-3.7344 1.7969-0.85547 1.1992-1.2812 2.9375-1.2812 5.2188 0 2.2734 0.42578 4.0078 1.2812 5.2031 0.86328 1.1992 2.1094 1.7969 3.7344 1.7969z"/>
  </symbol>
  <symbol id="g" overflow="visible">
   <path d="m16.406-4.9375c1.6328 0 2.8828-0.59766 3.75-1.7969 0.86328-1.1953 1.2969-2.9297 1.2969-5.2031 0-2.2812-0.43359-4.0195-1.2969-5.2188-0.86719-1.1953-2.1172-1.7969-3.75-1.7969-1.6367 0-2.8906 0.60547-3.7656 1.8125-0.875 1.1992-1.3125 2.9336-1.3125 5.2031 0 2.2617 0.4375 3.9961 1.3125 5.2031 0.875 1.1992 2.1289 1.7969 3.7656 1.7969zm-5.0781-15.484c1.0508-1.3945 2.2188-2.4219 3.5-3.0781 1.2812-0.66406 2.7539-1 4.4219-1 2.9453 0 5.3672 1.1719 7.2656 3.5156 1.8945 2.3438 2.8438 5.3594 2.8438 9.0469s-0.94922 6.7031-2.8438 9.0469c-1.8984 2.3438-4.3203 3.5156-7.2656 3.5156-1.668 0-3.1406-0.33594-4.4219-1s-2.4492-1.6914-3.5-3.0781v3.4531h-7.6562v-33.234h7.6562z"/>
  </symbol>
  <symbol id="f" overflow="visible">
   <path d="m0.53125-23.922h7.6562l6.4219 16.234 5.4688-16.234h7.6562l-10.062 26.188c-1.0117 2.6641-2.1953 4.5234-3.5469 5.5781-1.3438 1.0625-3.1211 1.5938-5.3281 1.5938h-4.4219v-5.0156h2.3906c1.3008 0 2.2422-0.21094 2.8281-0.625 0.59375-0.40625 1.0547-1.1484 1.3906-2.2188l0.20312-0.65625z"/>
  </symbol>
  <symbol id="e" overflow="visible">
   <path d="m0.21875-31.891h29.391v6.2188h-10.578v25.672h-8.2188v-25.672h-10.594z"/>
  </symbol>
  <symbol id="n" overflow="visible">
   <path d="m3.6719-23.922h7.6562v23.922h-7.6562zm0-9.3125h7.6562v6.2344h-7.6562z"/>
  </symbol>
  <symbol id="d" overflow="visible">
   <path d="m11.328-3.4531v12.547h-7.6562v-33.016h7.6562v3.5c1.0508-1.3945 2.2188-2.4219 3.5-3.0781 1.2812-0.66406 2.7539-1 4.4219-1 2.9453 0 5.3672 1.1719 7.2656 3.5156 1.8945 2.3438 2.8438 5.3594 2.8438 9.0469s-0.94922 6.7031-2.8438 9.0469c-1.8984 2.3438-4.3203 3.5156-7.2656 3.5156-1.668 0-3.1406-0.33594-4.4219-1s-2.4492-1.6914-3.5-3.0781zm5.0781-15.5c-1.6367 0-2.8906 0.60547-3.7656 1.8125-0.875 1.1992-1.3125 2.9336-1.3125 5.2031 0 2.2617 0.4375 3.9961 1.3125 5.2031 0.875 1.1992 2.1289 1.7969 3.7656 1.7969 1.6328 0 2.8828-0.59766 3.75-1.7969 0.86328-1.1953 1.2969-2.9297 1.2969-5.2031 0-2.2812-0.43359-4.0195-1.2969-5.2188-0.86719-1.1953-2.1172-1.7969-3.75-1.7969z"/>
  </symbol>
  <symbol id="m" overflow="visible">
   <path d="m1.5312-23.922h7.4375l4.0156 16.484 4.0469-16.484h6.375l4.0156 16.312 4.0469-16.312h7.4375l-6.3125 23.922h-8.3438l-4.0469-16.453-4.0156 16.453h-8.3438z"/>
  </symbol>
  <symbol id="l" overflow="visible">
   <path d="m27.734-14.562v14.562h-7.7031v-11.156c0-2.0625-0.046875-3.4844-0.14062-4.2656-0.085937-0.78125-0.24219-1.3594-0.46875-1.7344-0.30469-0.5-0.71094-0.88281-1.2188-1.1562-0.51172-0.28125-1.0938-0.42188-1.75-0.42188-1.5938 0-2.8516 0.61719-3.7656 1.8438-0.90625 1.2305-1.3594 2.9375-1.3594 5.125v11.766h-7.6562v-23.922h7.6562v3.5c1.1445-1.3945 2.3633-2.4219 3.6562-3.0781 1.3008-0.66406 2.7383-1 4.3125-1 2.7578 0 4.8516 0.85156 6.2812 2.5469 1.4375 1.6875 2.1562 4.1523 2.1562 7.3906z"/>
  </symbol>
  <symbol id="k" overflow="visible">
   <path d="m26.219-30.891v6.75c-1.7617-0.78125-3.4766-1.3672-5.1406-1.7656-1.668-0.40625-3.2422-0.60938-4.7188-0.60938-1.9609 0-3.4141 0.27344-4.3594 0.8125-0.9375 0.54297-1.4062 1.3867-1.4062 2.5312 0 0.85547 0.31641 1.5234 0.95312 2 0.63281 0.46875 1.7852 0.875 3.4531 1.2188l3.5 0.70312c3.5391 0.71875 6.0625 1.8047 7.5625 3.25 1.5 1.4492 2.25 3.5117 2.25 6.1875 0 3.5234-1.0469 6.1406-3.1406 7.8594-2.0859 1.7188-5.2734 2.5781-9.5625 2.5781-2.0234 0-4.0547-0.19531-6.0938-0.57812-2.0312-0.38281-4.0625-0.95703-6.0938-1.7188v-6.9375c2.0312 1.0859 3.9922 1.9023 5.8906 2.4531 1.9062 0.54297 3.7422 0.8125 5.5156 0.8125 1.7891 0 3.1602-0.29688 4.1094-0.89062 0.95703-0.60156 1.4375-1.457 1.4375-2.5625 0-1-0.32422-1.7695-0.96875-2.3125-0.64844-0.53906-1.9375-1.0234-3.875-1.4531l-3.1875-0.70312c-3.1875-0.6875-5.5234-1.7734-7-3.2656-1.4688-1.5-2.2031-3.5156-2.2031-6.0469 0-3.1758 1.0234-5.6172 3.0781-7.3281 2.0508-1.707 5-2.5625 8.8438-2.5625 1.75 0 3.5508 0.13281 5.4062 0.39062 1.8516 0.26172 3.7695 0.65625 5.75 1.1875z"/>
  </symbol>
  <symbol id="c" overflow="visible">
   <path d="m15.062-19.031c-1.6992 0-2.9961 0.60938-3.8906 1.8281-0.88672 1.2188-1.3281 2.9766-1.3281 5.2656 0 2.293 0.44141 4.0469 1.3281 5.2656 0.89453 1.2188 2.1914 1.8281 3.8906 1.8281 1.6641 0 2.9375-0.60938 3.8125-1.8281 0.88281-1.2188 1.3281-2.9727 1.3281-5.2656 0-2.2891-0.44531-4.0469-1.3281-5.2656-0.875-1.2188-2.1484-1.8281-3.8125-1.8281zm0-5.4688c4.1133 0 7.3281 1.1094 9.6406 3.3281s3.4688 5.2969 3.4688 9.2344c0 3.9297-1.1562 7.0078-3.4688 9.2344-2.3125 2.2188-5.5273 3.3281-9.6406 3.3281-4.1367 0-7.3711-1.1094-9.7031-3.3281-2.3242-2.2266-3.4844-5.3047-3.4844-9.2344 0-3.9375 1.1602-7.0156 3.4844-9.2344 2.332-2.2188 5.5664-3.3281 9.7031-3.3281z"/>
  </symbol>
 </defs>
 <g>
  <path d="m428.75 280c0 14.496-11.754 26.25-26.25 26.25s-26.25-11.754-26.25-26.25 11.754-26.25 26.25-26.25 26.25 11.754 26.25 26.25"/>
  <path d="m175 78.75c0 14.496-11.754 26.25-26.25 26.25s-26.25-11.754-26.25-26.25 11.754-26.25 26.25-26.25 26.25 11.754 26.25 26.25"/>
  <path d="m490 490h-37.688l-10.988-29.32c-1.2812-3.418-4.5508-5.6836-8.1992-5.6797h-166.25c-3.6484-0.003906-6.918 2.2617-8.1992 5.6797l-10.988 29.32h-37.688c-11.664 0.011719-22.844 4.6797-31.059 12.965-8.2109 8.2852-12.781 19.504-12.691 31.172 0.16016 4.6992 4.0469 8.4141 8.75 8.3633h350c4.7031 0.050781 8.5898-3.6641 8.75-8.3633 0.089844-11.668-4.4805-22.887-12.691-31.172-8.2148-8.2852-19.395-12.953-31.059-12.965z"/>
  <path d="m568.75 17.5h-437.5c-11.598 0.015625-22.719 4.6289-30.922 12.828-8.1992 8.2031-12.812 19.324-12.828 30.922v332.5c0.015625 11.598 4.6289 22.719 12.828 30.922 8.2031 8.1992 19.324 12.812 30.922 12.828h437.5c11.598-0.015625 22.719-4.6289 30.922-12.828 8.1992-8.2031 12.812-19.324 12.828-30.922v-332.5c-0.015625-11.598-4.6289-22.719-12.828-30.922-8.2031-8.1992-19.324-12.812-30.922-12.828zm-323.75 323.75c0 9.3789-5.0039 18.043-13.125 22.734-8.1211 4.6875-18.129 4.6875-26.25 0-8.1211-4.6914-13.125-13.355-13.125-22.734v-13.879l9.8789-9.8789c12.832 8.2148 27.449 13.227 42.621 14.613zm7.7539 27.188c6.2617-7.6797 9.7031-17.277 9.7461-27.188v-17.5c0-2.3203-0.92188-4.5469-2.5625-6.1875s-3.8672-2.5625-6.1875-2.5625c-15.395 0.003906-30.441-4.5664-43.234-13.125l-4.375-2.9414c-3.4688-2.3125-8.0938-1.8555-11.043 1.0938l-17.5 17.5c-1.6602 1.6445-2.5977 3.8867-2.5977 6.2227v17.5c0.042969 9.9102 3.4844 19.508 9.7461 27.188-1.668 0.38281-3.3047 0.89062-4.8984 1.5195-6.7383-3.8008-12.352-9.3164-16.277-15.984-3.9219-6.668-6.0156-14.254-6.0703-21.988 0.14062-16.668 7.0664-32.559 19.184-44.008 12.117-11.445 28.375-17.461 45.023-16.656 15.984 1.2578 30.891 8.5352 41.711 20.363 10.824 11.828 16.75 27.324 16.582 43.355-0.039062 14.984 5.0547 29.527 14.438 41.211h-26.531c-4.3203-3.8242-9.5312-6.5078-15.152-7.8125zm88.496 51.562h-61.25v-17.5c-0.035156-2.957-0.45312-5.8984-1.2422-8.75h36.242c3.5391 0 6.7266-2.1328 8.082-5.4023 1.3555-3.2695 0.60547-7.0312-1.8945-9.5352l-9.4844-9.4844c-9.125-9.0742-14.238-21.422-14.203-34.289 0.35938-20.586-7.2344-40.512-21.199-55.637-13.965-15.125-33.227-24.281-53.77-25.566-17.934-0.89453-35.625 4.418-50.094 15.043-3.8906-8.3438-11.875-14.031-21.031-14.988-9.1523-0.95312-18.137 2.9688-23.664 10.332-5.5273 7.3594-6.7852 17.082-3.3125 25.605 3.4727 8.5273 11.164 14.605 20.262 16.012-3.0195 8.3398-4.6055 17.133-4.6914 26.004 0.042969 19.453 9.3359 37.727 25.035 49.219-4.8477 6.0977-7.5039 13.648-7.5352 21.438v17.5h-26.25c-6.9609 0-13.641-2.7656-18.562-7.6875s-7.6875-11.602-7.6875-18.562v-157.5h236.25zm-140-280v-26.25h52.5v26.25c0 9.3789-5.0039 18.043-13.125 22.734-8.1211 4.6875-18.129 4.6875-26.25 0-8.1211-4.6914-13.125-13.355-13.125-22.734zm140 78.75h-52.5v-17.5c-0.015625-7.9219-2.7188-15.609-7.668-21.797s-11.852-10.512-19.578-12.266c6.2617-7.6797 9.7031-17.277 9.7461-27.188v-35c0-15.629-8.3398-30.074-21.875-37.887-13.535-7.8164-30.215-7.8164-43.75 0-13.535 7.8125-21.875 22.258-21.875 37.887v35c0.042969 9.9102 3.4844 19.508 9.7461 27.188-7.7266 1.7539-14.629 6.0781-19.578 12.266s-7.6523 13.875-7.668 21.797v17.5h-61.25v-157.5c0-6.9609 2.7656-13.641 7.6875-18.562s11.602-7.6875 18.562-7.6875h210zm61.25 175c-4.832 0-8.75-3.918-8.75-8.75v-8.75c0-4.832 3.918-8.75 8.75-8.75s8.75 3.918 8.75 8.75v8.75c0 2.3203-0.92188 4.5469-2.5625 6.1875s-3.8672 2.5625-6.1875 2.5625zm122.5-52.5c0 9.3789-5.0039 18.043-13.125 22.734-8.1211 4.6875-18.129 4.6875-26.25 0-8.1211-4.6914-13.125-13.355-13.125-22.734v-26.25h52.5zm70 52.5c0 6.9609-2.7656 13.641-7.6875 18.562s-11.602 7.6875-18.562 7.6875h-8.75v-17.5c-0.015625-7.9219-2.7188-15.609-7.668-21.797s-11.852-10.512-19.578-12.266c6.2617-7.6797 9.7031-17.277 9.7461-27.188v-35c-0.015625-11.598-4.6289-22.719-12.828-30.922-8.2031-8.1992-19.324-12.812-30.922-12.828h-35c-4.832 0-8.75 3.918-8.75 8.75v70c0.042969 9.9102 3.4844 19.508 9.7461 27.188-7.7266 1.7539-14.629 6.0781-19.578 12.266s-7.6523 13.875-7.668 21.797v17.5h-26.25v-10.359c5.1016-1.8047 9.5195-5.1406 12.652-9.5508 3.1328-4.4102 4.8242-9.6797 4.8477-15.09v-8.75c0-9.3789-5.0039-18.043-13.125-22.734-8.1211-4.6875-18.129-4.6875-26.25 0-8.1211 4.6914-13.125 13.355-13.125 22.734v8.75c0.023438 5.4102 1.7148 10.68 4.8477 15.09 3.1328 4.4102 7.5508 7.7461 12.652 9.5508v10.359h-35v-183.75h236.25zm-78.75-280c-8.8789-0.027344-17.387-3.5508-23.688-9.8086l-5.1289-5.1289h0.003906c-3.418-3.4141-8.957-3.4141-12.375 0l-5.1289 5.1289h0.003906c-6.3008 6.2578-14.809 9.7812-23.688 9.8086-4.832 0-8.75 3.918-8.75 8.75v17.5c0.042969 9.9102 3.4844 19.508 9.7461 27.188-1.875 0.42578-3.7148 1.0117-5.4922 1.75-13.414-7.8281-21.688-22.16-21.754-37.688 0-21.883 11.676-42.102 30.625-53.043 18.949-10.941 42.301-10.941 61.25 0 18.949 10.941 30.625 31.16 30.625 53.043-0.089844 15.504-8.3594 29.812-21.754 37.625-1.7773-0.73828-3.6172-1.3242-5.4922-1.75 6.25-7.6641 9.6875-17.234 9.7461-27.125v-17.5c0-2.3203-0.92188-4.5469-2.5625-6.1875s-3.8672-2.5625-6.1875-2.5625zm-8.75 16.73v9.5195c0 9.3789-5.0039 18.043-13.125 22.734-8.1211 4.6875-18.129 4.6875-26.25 0-8.1211-4.6914-13.125-13.355-13.125-22.734v-9.5195c9.8359-1.7383 18.957-6.2969 26.25-13.125 7.293 6.8281 16.414 11.387 26.25 13.125zm87.5 88.27h-52.5v-17.5c-0.027344-7.6328-2.5742-15.043-7.2461-21.078 15.484-11.512 24.648-29.633 24.746-48.922 0.039062-20.488-7.9258-40.184-22.195-54.887-14.266-14.707-33.715-23.258-54.195-23.836-20.48-0.58203-40.379 6.8594-55.453 20.738-1.3906-6.5-5.1914-12.227-10.637-16.035-5.4453-3.8047-12.133-5.4023-18.711-4.4727-6.582 0.93359-12.562 4.3242-16.738 9.4883-4.1758 5.168-6.2383 11.727-5.7695 18.355 0.46875 6.6289 3.4336 12.832 8.293 17.359 4.8633 4.5273 11.262 7.043 17.906 7.0391 1.6016-0.011719 3.1992-0.17578 4.7695-0.48047-3.1367 8.5625-4.75 17.609-4.7695 26.73 0.10156 19.289 9.2656 37.41 24.746 48.922-4.6719 6.0352-7.2188 13.445-7.2461 21.078v17.5h-61.25v-183.75h210c6.9609 0 13.641 2.7656 18.562 7.6875s7.6875 11.602 7.6875 18.562z"/>
 </g>
</svg>
