<svg xmlns="http://www.w3.org/2000/svg" xmlns:xlink="http://www.w3.org/1999/xlink" version="1.1" x="0px" y="0px" viewBox="0 0 100 125" enable-background="new 0 0 100 100" xml:space="preserve">

<defs><style type="text/css">
   
    .fil0 {fill:white;fill-rule:nonzero}
   
  </style></defs>

<path class="fil0" d="M44.363,32.618c0-3.113,2.523-5.639,5.639-5.639c3.113,0,5.64,2.525,5.64,5.639c0,1.822-0.868,3.439-2.209,4.471  c-0.488,0.375-1.038,0.674-1.637,0.873c-0.564,0.189-1.167,0.297-1.794,0.297c-0.63,0-1.232-0.107-1.797-0.297  c-0.597-0.201-1.145-0.498-1.634-0.873C45.229,36.058,44.363,34.44,44.363,32.618z M62.498,54.358V43.997  c0-1.383-0.801-2.568-1.952-3.15c-0.481-0.244-1.017-0.395-1.592-0.395h-4.104h-0.602l-0.007,0.008h-8.483l-0.006-0.008h-0.599  h-4.105c-0.576,0-1.111,0.15-1.592,0.395c-1.154,0.582-1.954,1.768-1.954,3.15v10.361c4.073-0.549,8.255-0.83,12.497-0.83  S58.425,53.81,62.498,54.358z M75.357,41.442c0.488,0.375,1.037,0.674,1.633,0.873c0.566,0.191,1.168,0.299,1.798,0.299  c0.627,0,1.229-0.107,1.794-0.297c0.599-0.201,1.147-0.5,1.637-0.875c1.34-1.031,2.209-2.648,2.209-4.471  c0-3.115-2.526-5.639-5.64-5.639c-3.116,0-5.639,2.523-5.639,5.639C73.149,38.794,74.016,40.411,75.357,41.442z M88.381,48.351  c0-1.383-0.615-2.566-1.498-3.148c-0.37-0.246-0.782-0.395-1.223-0.395h-3.151h-0.46l-0.006,0.006H75.53l-0.006-0.006h-0.459h-3.152  c-0.441,0-0.853,0.148-1.221,0.393c-0.888,0.584-1.5,1.768-1.5,3.15v7.18c6.89,1.477,13.368,3.75,19.188,6.752V48.351z   M17.785,41.442c0.488,0.375,1.037,0.674,1.633,0.873c0.565,0.191,1.168,0.299,1.799,0.299c0.626,0,1.229-0.107,1.793-0.297  c0.598-0.201,1.147-0.5,1.637-0.875c1.34-1.031,2.209-2.648,2.209-4.471c0-3.115-2.525-5.639-5.639-5.639  c-3.116,0-5.64,2.523-5.64,5.639C15.577,38.794,16.443,40.411,17.785,41.442z M30.809,48.351c0-1.383-0.614-2.566-1.498-3.148  c-0.369-0.246-0.781-0.395-1.223-0.395h-3.15h-0.461l-0.006,0.006h-6.512l-0.006-0.006h-0.459h-3.152  c-0.442,0-0.854,0.148-1.223,0.393c-0.886,0.584-1.5,1.768-1.5,3.15v13.93c5.821-3,12.299-5.273,19.189-6.75V48.351z M88.027,65.526  c-5.562-2.99-11.925-5.34-18.835-6.881c-2.18-0.486-4.415-0.891-6.694-1.209C58.464,56.87,54.284,56.571,50,56.571  c-4.283,0-8.463,0.299-12.497,0.865c-2.281,0.318-4.515,0.723-6.694,1.209c-6.911,1.541-13.271,3.891-18.834,6.881  c-4.053,2.182-7.684,4.697-10.792,7.494h14.288h10.889h16.16H56.7h16.343h10.889h14.886C95.709,70.224,92.078,67.708,88.027,65.526z  "/>
</svg>