<svg height='100px' width='100px'  fill="#000000" xmlns:dc="http://purl.org/dc/elements/1.1/" xmlns:cc="http://creativecommons.org/ns#" xmlns:rdf="http://www.w3.org/1999/02/22-rdf-syntax-ns#" xmlns:svg="http://www.w3.org/2000/svg" xmlns="http://www.w3.org/2000/svg" xmlns:sodipodi="http://sodipodi.sourceforge.net/DTD/sodipodi-0.dtd" xmlns:inkscape="http://www.inkscape.org/namespaces/inkscape" viewBox="0 0 80 80" version="1.1" x="0px" y="0px"><path style="" d="m 38.744195,2.3287117 c -7.6202,0.0261 -15.206561,2.52384 -21.332471,7.0574996 C 7.9766288,16.173961 2.0546014,27.704351 2.3431754,39.360201 l 37.1381366,0 0,-37.0252093 c -0.245836,-0.004 -0.491303,-0.007 -0.737117,-0.006 z m 2.819864,2.38701 c -0.150121,-2e-5 -0.301512,0.001 -0.45168,0.003 -0.01255,12.1828193 0.01255,24.3530893 0,36.5233493 l -36.5233506,0 c 0.06273,3.40015 0.45168,6.8003 1.3424944,10.07498 1.794173,6.38625 5.2946932,12.30828 10.1251602,16.86272 5.846748,5.60836 13.613135,9.15907 21.668096,9.96205 3.701267,0.3764 7.440174,0.12547 11.078707,-0.58969 9.297079,-1.85691 17.740989,-7.528 23.035679,-15.36967 4.17804,-6.16041 6.49918,-13.61313 6.29843,-21.06585 0,-9.64839 -4.09021,-19.18386 -11.01597,-25.88378 C 60.365825,8.6252513 51.021695,4.7164417 41.564059,4.7155917 z m 0.175653,0.63047 c 4.629721,0.0878 9.259443,0.9911796 13.525313,2.7978996 9.0336,3.7138197 16.42358,11.2543597 19.87392,20.4008897 2.99865,7.79148 3.1994,16.62433 0.52696,24.52873 -2.94847,8.77012 -9.38491,16.31067 -17.61552,20.5389 -7.70366,4.05257 -16.900366,5.0814 -25.331727,3.0112 -9.184161,-2.22076 -17.339495,-8.24316 -22.207602,-16.32322 -3.4252402,-5.50799 -5.1441336,-11.96952 -5.2946936,-18.43105 l 36.5233496,0 c 0.01255,-12.17027 -0.01255,-24.35309 0,-36.5233493 z" fill="#000000" stroke="#000000" stroke-width="0.0117625"></path></svg>