<svg xmlns:dc="http://purl.org/dc/elements/1.1/" xmlns:cc="http://creativecommons.org/ns#" xmlns:rdf="http://www.w3.org/1999/02/22-rdf-syntax-ns#" xmlns:svg="http://www.w3.org/2000/svg" xmlns="http://www.w3.org/2000/svg" xmlns:sodipodi="http://sodipodi.sourceforge.net/DTD/sodipodi-0.dtd" xmlns:inkscape="http://www.inkscape.org/namespaces/inkscape" version="1.1" x="0px" y="0px" viewBox="-4 -4 100 100">
<g transform="translate(0,-952.36218)">

<defs><style type="text/css">
   
    .fil0 {fill:black;fill-rule:nonzero}
   
  </style></defs>

<path class="fil0" style="text-indent:0;text-transform:none;direction:ltr;block-progression:tb;baseline-shift:baseline;color:#000000;enable-background:accumulate;" d="m 33.204523,958.32033 a 1.9548428,2.0466096 0 0 0 -0.375,0.094 1.9548428,2.0466096 0 0 0 -0.0625,0.031 1.9548428,2.0466096 0 0 0 -0.125,0.031 1.9548428,2.0466096 0 0 0 -0.0625,0.031 1.9548428,2.0466096 0 0 0 -0.125,0.062 1.9548428,2.0466096 0 0 0 -0.03125,0.031 1.9548428,2.0466096 0 0 0 -0.125,0.062 1.9548428,2.0466096 0 0 0 -0.0625,0.062 1.9548428,2.0466096 0 0 0 -0.375,0.3438 l -16.875,14.4065 a 1.9548428,2.0466096 0 0 0 -0.40625,0.3437 1.9548428,2.0466096 0 0 0 -0.09375,0.125 1.9548428,2.0466096 0 0 0 -0.03125,0.031 1.9548428,2.0466096 0 0 0 -0.09375,0.125 1.9548428,2.0466096 0 0 0 -0.03125,0.031 1.9548428,2.0466096 0 0 0 -0.0625,0.1563 1.9548428,2.0466096 0 0 0 -0.0625,0.125 1.9548428,2.0466096 0 0 0 -0.03125,0.062 1.9548428,2.0466096 0 0 0 0,0.031 1.9548428,2.0466096 0 0 0 -0.0625,0.1562 1.9548428,2.0466096 0 0 0 0,0.031 1.9548428,2.0466096 0 0 0 -0.03125,0.1563 1.9548428,2.0466096 0 0 0 0,0.062 1.9548428,2.0466096 0 0 0 -0.03125,0.1562 1.9548428,2.0466096 0 0 0 0,0.1875 1.9548428,2.0466096 0 0 0 0,0.2188 l 0,56.21867 a 1.9548428,2.0466096 0 0 0 1.9375,2.0313 l 4.84375,0 0,4.1875 a 1.9548428,2.0466096 0 0 0 1.9375,2.0312 l 4.78125,0 0,4.4375 a 1.9548428,2.0466096 0 0 0 1.9375,2.0313 l 54.499998,0 a 1.9548428,2.0466096 0 0 0 1.96875,-2.0313 l 0,-71.34367 a 1.9548428,2.0466096 0 0 0 -1.96875,-2.0311 l -4.75,0 0,-4.4375 a 1.9548428,2.0466096 0 0 0 -1.96875,-2.0312 l -4.8125,0 0,-4.1563 a 1.9548428,2.0466096 0 0 0 -1.96875,-2.0625 l -36.937498,0 a 1.9548428,2.0466096 0 0 0 -0.15625,0 1.9548428,2.0466096 0 0 0 -0.1875,0 z m 2.15625,4.0938 33.187498,0 0,2.125 -28.21875,0 a 1.9548428,2.0466096 0 0 0 -0.15625,0 1.9548428,2.0466096 0 0 0 -0.0625,0 1.9548428,2.0466096 0 0 0 -0.5625,0.094 1.9548428,2.0466096 0 0 0 -0.46875,0.25 1.9548428,2.0466096 0 0 0 -0.125,0.094 1.9548428,2.0466096 0 0 0 -0.0312,0.031 l -0.09375,0.062 a 1.9548428,2.0466096 0 0 0 -0.0625,0.062 l -3.40625,2.9062 0,-5.625 z m -3.90625,2.2812 0,6.7188 -2.09375,1.7812 -7.875,0 9.96875,-8.5 z m 10.687498,3.9375 33.1875,0 0,2.375 -28.28125,0 a 1.9548428,2.0466096 0 0 0 -0.15625,0 1.9548428,2.0466096 0 0 0 -0.0625,0 1.9548428,2.0466096 0 0 0 -0.5625,0.094 1.9548428,2.0466096 0 0 0 -0.125,0.062 1.9548428,2.0466096 0 0 0 -0.0625,0.031 1.9548428,2.0466096 0 0 0 -0.28125,0.1563 1.9548428,2.0466096 0 0 0 -0.125,0.094 1.9548428,2.0466096 0 0 0 -0.0312,0.031 l -0.0937,0.062 a 1.9548428,2.0466096 0 0 0 -0.0625,0.062 l -3.34375,2.875 0,-5.8438 z m -3.906248,2.25 0,6.5 a 1.9548428,2.0466096 0 0 0 0.03125,0.4063 l -1.90625,1.625 a 1.9548428,2.0466096 0 0 0 -0.125,0 l -7.96875,0 9.96875,-8.5313 z m -20.28125,6.4063 6.625,0 -2.875,2.4062 a 1.9548428,2.0466096 0 0 0 -0.0625,0.062 l -0.09375,0.094 a 1.9548428,2.0466096 0 0 0 -0.59375,0.8438 1.9548428,2.0466096 0 0 0 -0.0625,0.1875 1.9548428,2.0466096 0 0 0 0,0.031 1.9548428,2.0466096 0 0 0 -0.03125,0.1562 1.9548428,2.0466096 0 0 0 0,0.031 1.9548428,2.0466096 0 0 0 -0.03125,0.1875 1.9548428,2.0466096 0 0 0 0,0.1563 1.9548428,2.0466096 0 0 0 0,0.25 l 0,47.93747 -2.875,0 0,-52.34377 z m 26.999998,0.062 0,8.5312 -9.968748,0 9.968748,-8.5312 z m 7.9375,3.9687 a 2.0002,2.0002 0 0 1 0.1875,0 l 23.5625,0 a 2.0002,2.0002 0 1 1 0,4 l -23.5625,0 a 2.0021961,2.0021961 0 1 1 -0.1875,-4 z m -28.156248,2.1875 6.8125,0 -3.03125,2.5938 a 1.9548428,2.0466096 0 0 0 -0.15625,0.125 l -0.09375,0.094 a 1.9548428,2.0466096 0 0 0 -0.0625,0.031 1.9548428,2.0466096 0 0 0 -0.09375,0.125 1.9548428,2.0466096 0 0 0 -0.03125,0.031 1.9548428,2.0466096 0 0 0 -0.09375,0.125 1.9548428,2.0466096 0 0 0 -0.03125,0.031 1.9548428,2.0466096 0 0 0 -0.09375,0.125 1.9548428,2.0466096 0 0 0 -0.03125,0.031 1.9548428,2.0466096 0 0 0 -0.0625,0.1562 1.9548428,2.0466096 0 0 0 -0.0625,0.125 1.9548428,2.0466096 0 0 0 -0.03125,0.062 1.9548428,2.0466096 0 0 0 0,0.031 1.9548428,2.0466096 0 0 0 -0.0625,0.1563 1.9548428,2.0466096 0 0 0 0,0.031 1.9548428,2.0466096 0 0 0 -0.03125,0.1562 1.9548428,2.0466096 0 0 0 0,0.031 1.9548428,2.0466096 0 0 0 -0.03125,0.1875 1.9548428,2.0466096 0 0 0 0,0.1563 1.9548428,2.0466096 0 0 0 0,0.25 l 0,47.68747 -2.8125,0 0,-52.34377 z m 27.999998,5.7813 a 2.0002,2.0002 0 0 1 0.21875,0 l 23.5625,0 a 2.0002,2.0002 0 1 1 0,4 l -23.5625,0 a 2.0029885,2.0029885 0 0 1 -0.21875,-4 z m -13.3125,8.2187 a 2.0002,2.0002 0 0 1 0.21875,0 l 37.25,0 a 2.0002,2.0002 0 1 1 0,3.99997 l -37.25,0 a 2.0029885,2.0029885 0 0 1 -0.21875,-3.99997 z m 0,8.09377 a 2.0002,2.0002 0 0 1 0.21875,0 l 37.125,0 a 2.0002,2.0002 0 1 1 0,4 l -37.125,0 a 2.0029935,2.0029935 0 0 1 -0.21875,-4 z m 0.15625,8.0937 a 2.0002,2.0002 0 0 1 0.1875,0 l 36.875,0 a 2.0002,2.0002 0 1 1 0,4 l -36.875,0 a 2.0021961,2.0021961 0 1 1 -0.1875,-4 z m 0,8.2188 a 2.0002,2.0002 0 0 1 0.1875,0 l 36.75,0 a 2.0002,2.0002 0 1 1 0,4 l -36.75,0 a 2.0021961,2.0021961 0 1 1 -0.1875,-4 z m 0,7.9687 a 2.0002,2.0002 0 0 1 0.1875,0 l 36.875,0 a 2.0002,2.0002 0 1 1 0,4 l -36.875,0 a 2.0021961,2.0021961 0 1 1 -0.1875,-4 z" fill="#000000" fill-opacity="1" fill-rule="evenodd" stroke="none" marker="none" visibility="visible" display="inline" overflow="visible"/></g>
</svg>