<svg xmlns="http://www.w3.org/2000/svg" xmlns:xlink="http://www.w3.org/1999/xlink" xml:space="preserve" version="1.1" style="shape-rendering:geometricPrecision;text-rendering:geometricPrecision;image-rendering:optimizeQuality;" viewBox="0 0 316 300" x="0px" y="0px" fill-rule="evenodd" clip-rule="evenodd"><defs>

<style type="text/css">
    .fil1 {fill:white}
    .fil0 {fill:white;fill-rule:nonzero}
  </style></defs>

  <g><path class="fil0" d="M300 202c-18,0 -38,-7 -55,-11 -17,13 -35,27 -75,22 -9,13 -23,16 -35,9 -14,14 -31,7 -41,-9 -11,0 -19,-3 -25,-10 -7,7 -13,11 -17,14 -5,-4 -14,-16 -18,-22l34 -27c-3,-1 -6,-5 -5,-11 13,-65 4,-46 41,-99 2,-2 3,-4 9,-4 26,0 52,1 78,1 4,0 6,1 10,4l1 1 77 -60c9,3 16,14 16,19l-72 61c28,31 63,30 91,36 5,30 -2,61 -14,86zm-6 -9c8,-23 15,-47 11,-69 -44,-6 -69,-16 -90,-38l-40 34c0,7 1,15 2,22 1,5 -3,11 -10,14 -13,4 -22,7 -34,13 -15,7 -8,5 -25,6 -14,0 -35,3 -33,17 3,23 50,5 50,5 53,7 82,17 113,-12 1,-1 5,-5 9,-3 15,4 31,9 47,11zm-100 -127l-1 -1 -81 -1c-36,51 -26,29 -39,94 27,1 28,-33 31,-38l23 -24c2,-2 4,-5 9,-2 5,2 10,4 16,6l42 -34zm-51 41l-8 -3c-6,7 -13,14 -22,22 -1,2 -1,4 -2,7l32 -26zm22 19l-47 39c18,-8 31,-14 42,-17 7,-3 7,-5 6,-11l-1 -11zm-33 82c-11,-2 -13,3 -27,5 11,9 22,9 27,-5zm26 4l-19 -3c3,10 14,8 19,3z"/><path class="fil0" d="M13 237c-7,2 -12,3 -13,2 -1,-1 2,-6 6,-12 1,3 3,5 5,7 0,1 1,2 2,3z"/><path class="fil0" d="M47 222c-3,1 -17,7 -29,12 -1,-1 -2,-2 -3,-3 -2,-3 -4,-6 -5,-8 7,-10 17,-21 19,-24 2,5 13,19 18,23z"/><path class="fil1" d="M100 179c-1,6 0,14 2,21 -10,2 -23,1 -24,-8 -1,-9 12,-14 22,-13z"/></g></svg>